<?xml version="1.0" encoding="UTF-8" standalone="no" ?>
<!DOCTYPE svg PUBLIC "-//W3C//DTD SVG 1.1//EN" "http://www.w3.org/Graphics/SVG/1.1/DTD/svg11.dtd">
<svg xmlns="http://www.w3.org/2000/svg" xmlns:xlink="http://www.w3.org/1999/xlink" version="1.1" width="1280" height="1024" viewBox="0 0 1280 1024" xml:space="preserve">
<desc>Created with Fabric.js 5.3.0</desc>
<defs>
</defs>
<g transform="matrix(1 0 0 1 640 512)" id="background-logo"  >
<rect style="stroke: none; stroke-width: 0; stroke-dasharray: none; stroke-linecap: butt; stroke-dashoffset: 0; stroke-linejoin: miter; stroke-miterlimit: 4; fill: rgb(255,255,255); fill-opacity: 0; fill-rule: nonzero; opacity: 1;"  paint-order="stroke"  x="-640" y="-512" rx="0" ry="0" width="1280" height="1024" />
</g>
<g transform="matrix(3.4807609195836724 0 0 3.4807609195836724 638.7291000290783 449.9793432808025)" id="logo-logo"  >
<g style=""  paint-order="stroke"   >
		<g transform="matrix(-1.5046158532093707 0 0 -1.5046158532093705 0 0)"  >
<g style=""  paint-order="stroke"   >
		<g transform="matrix(1 0 0 1 0 0)"  >
<path style="stroke: none; stroke-width: 1; stroke-dasharray: none; stroke-linecap: butt; stroke-dashoffset: 0; stroke-linejoin: miter; stroke-miterlimit: 4; fill: rgb(0,0,0); fill-rule: nonzero; opacity: 1;"  paint-order="stroke"  transform=" translate(-78.61978379461732, -60.93998946650237)" d="M 2.87 99.33 C 5.667728774393181 98.6351784984807 8.358741329382234 97.56550100787254 10.869999999999994 96.14999999999999 C 11.48 95.8 12.090000000000002 95.42999999999999 12.680000000000001 95.03999999999999 C 13.030000000000001 94.8 13.46 94.33 13.88 94.24999999999999 C 14.480888813938856 94.27409039490931 15.071571255463665 94.41327418860193 15.620000000000001 94.65999999999998 C 16.23 94.80999999999999 16.85 94.93999999999998 17.470000000000002 95.06999999999998 C 15.571494257498273 97.14655412304464 13.1559626217416 98.68214209148995 10.470000000000002 99.51999999999998 C 9.270000000000003 99.89999999999998 8.020000000000003 100.13999999999999 6.8400000000000025 100.58999999999997 C 6.230000000000002 100.81999999999998 5.680000000000002 100.45999999999998 5.080000000000003 100.22999999999998 C 4.480000000000003 99.99999999999997 3.61 99.64 2.87 99.33 Z M 37.36 72.8 C 37.67 72.72 38.87 72.57 39.04 72.21 C 39.21 71.85 38.28 71.58999999999999 38.04 71.5 C 34.839999999999996 70.31 31.48 69.5 28.22 68.5 C 26.3 75.36 26.84 82.72 28 89.64 C 27.9 83.35 30.47 74.63 37.36 72.8 Z M 42.36 74.2 C 44.83 77.57000000000001 44.63 81.54 43.5 85.39 C 42.04313247030686 89.80295425271785 39.845012112509885 93.93542052537616 37 97.61 C 34.74050760805822 100.70408466454846 32.16310950639174 103.5529642307598 29.310000000000002 106.11 C 25.89711338126504 109.07397834096082 22.214398054760405 111.71214168394779 18.310000000000006 113.99000000000001 C 16.018054657473513 115.49252910030067 13.57052775537029 116.74311476397808 11.01 117.72 C 10.481978806390345 117.91275299335415 9.940524893242733 118.06649916622322 9.389999999999997 118.17999999999999 C 9.130100443234882 118.20133338409435 8.872497684802221 118.24482475889467 8.619999999999994 118.30999999999999 C 8.299493670209827 118.51131690190928 8.001169036743292 118.74595425407396 7.729999999999993 119.00999999999999 Q 5.839999999999998 120.46 3.869999999999998 121.77999999999999 C 14.813328432699302 120.0147669654428 24.942855711741156 114.90808804062928 32.869999999999976 107.16 C 36.55797410234171 103.54498788772561 39.71291488156102 99.42369918573581 42.24 94.91999999999997 C 44.124582342314 91.72298990980916 45.602678385532485 88.30321315527183 46.639999999999986 84.74 C 47.32724065938898 82.63764140314466 47.37249925324661 80.37819314055987 46.769999999999996 78.24999999999999 C 46.08026063226174 76.2480363034907 44.43095791330067 74.72647001378856 42.38 74.2 Z M 25 96.64 C 23.28 96.31 21.55 95.95 19.83 95.64 C 19.40100603092072 95.48645831634937 18.953972527724154 95.38898484572756 18.5 95.35 C 18.16 95.35 17.83 95.89 17.56 96.16999999999999 C 16.978415282683997 96.76324897335779 16.349688901742788 97.30836812279085 15.679999999999998 97.79999999999998 C 14.433027881364211 98.71458002662065 13.067096276243191 99.45474000969115 11.620000000000001 99.99999999999999 C 10.32 100.48999999999998 8.96 100.76999999999998 7.620000000000001 101.18999999999998 C 11.565492492800068 102.51922888919819 15.647712071136908 103.40141767235562 19.789999999999964 103.81999999999998 C 19.07729512268436 106.01839007059448 18.046347117647397 108.10050074743384 16.730000000000004 110 C 14.755062376098435 112.66303317014038 12.465078630543383 115.07725357051292 9.909999999999993 117.19 C 13.280000000000001 116.25 16.34 114.24 19.28 112.42 C 21.822077984776406 110.87870537490411 24.266715091712193 109.18215394003612 26.600000000000023 107.33999999999999 C 31.100704474982344 103.67977266534793 35.004115370478075 99.34115001054455 38.17 94.48 C 40.02585719994543 91.77643105303738 41.5123306606573 88.83711475289672 42.59 85.74 C 43.48875100038166 83.34822889302599 43.75735211879406 80.76552583136831 43.370000000000005 78.24000000000001 C 43.05588232718325 76.84077580049609 42.43417465910607 75.52904094037721 41.550000000000004 74.4 C 41.18000000000001 73.91000000000001 40.980000000000004 73.89 40.36000000000001 73.84 C 39.98708439711524 73.8150237952604 39.61291560288477 73.8150237952604 39.24 73.84 C 38.23927714455541 73.88047515955037 37.25960297268472 74.13990107265899 36.37000000000001 74.60000000000001 C 34.0050017501847 76.00305478195774 32.177882230541805 78.15757722130543 31.180000000000007 80.72000000000001 C 28.80559186490455 86.02489619838573 28.429120851829545 92.00936466094596 30.120000000000015 97.57000000000004 C 28.41 97.27 26.7 97 25 96.64 Z M 124.55 75.33 C 126.40650086088807 77.17578223517606 127.74760110121974 79.47530372695299 128.44 82 C 129.26851382021488 84.46804141807415 129.68080487033805 87.05668850327379 129.66 89.65999999999998 C 130.79999999999998 82.74 131.32999999999998 75.38 129.41 68.55 C 127.08 69.25 124.72999999999999 69.92999999999999 122.41 70.61999999999999 C 121.56 70.88 120.71 71.13 119.86999999999999 71.41999999999999 C 119.57999999999998 71.51999999999998 118.86999999999999 71.67999999999999 118.66 71.96999999999998 C 118.36 72.44999999999999 119.5 72.60999999999999 119.82 72.69999999999999 C 121.59260241894498 73.1726284441508 123.2208936732892 74.07608962535866 124.55999999999999 75.32999999999998 Z M 110.55 79.75 C 110.05 83.14 111.55 86.75 112.89 89.84 C 114.28322488436214 92.98395826401332 115.95664480908566 95.99611412851567 117.89 98.84 C 126.18341878636141 111.15264376790634 139.22559108161346 119.4597829548544 153.89 121.77000000000001 C 152.73999999999998 121.00000000000001 151.6 120.19000000000001 150.48999999999998 119.35000000000001 C 150.0406430220634 118.91096937976187 149.52415994193524 118.54639308790671 148.95999999999998 118.27000000000001 C 148.51 118.14000000000001 148.02999999999997 118.10000000000001 147.57999999999998 117.97000000000001 C 145.37658592052728 117.27468193236056 143.26989104361337 116.30365351222004 141.30999999999997 115.08000000000001 C 137.2681039290436 112.83721015012985 133.43308051224443 110.24037055899879 129.84999999999997 107.32 C 126.82509350107803 104.78219548434078 124.08258273299326 101.92569282614004 121.66999999999996 98.80000000000003 C 118.84613124586417 95.3210790179275 116.54829793935019 91.44643341310189 114.84999999999997 87.30000000000003 C 113.21999999999997 82.98000000000002 112.44999999999996 78.14000000000001 115.34999999999997 74.19000000000001 C 112.74561365040879 74.86696237278323 110.82614166219278 77.0765408933797 110.52 79.75 Z M 131.76 96.81 C 130.35999999999999 97.08 128.95 97.32000000000001 127.55 97.55 C 129.02568400645575 92.63860177594887 128.89959639969626 87.38495149430346 127.19 82.54999999999998 C 126.41628272812385 79.95031469997974 124.95482832200788 77.60784168024779 122.96 75.77 C 121.7437154723608 74.66457859096123 120.19759881367693 73.98990950353554 118.55999999999999 73.85 C 118.14371021709411 73.82493728663296 117.72628978290587 73.82493728663296 117.30999999999999 73.85 C 116.66999999999999 73.85 116.49999999999999 73.85 116.10999999999999 74.41 C 115.59515280785565 75.06141450772732 115.1619346892164 75.77336986549106 114.81999999999998 76.53 C 113.99910535917753 78.66868382880602 113.85939462904354 81.00883855855047 114.41999999999997 83.23 C 115.1231820021619 86.36479326148189 116.33956891237692 89.3618354541506 118.01999999999998 92.10000000000001 C 120.97669726481793 97.17801730644496 124.71215991997582 101.76045478223936 129.09 105.68000000000002 C 131.5818506748413 107.9030533422744 134.25815060246094 109.91027828798914 137.08999999999995 111.67999999999998 C 140.42999999999998 113.78 143.90999999999997 116.18 147.74999999999997 117.26 C 145.1801279282394 115.12735301578498 142.8798270544911 112.6893698999583 140.9 110 C 139.56700892799026 108.08069084136751 138.5257057217244 105.97449503581356 137.81 103.75 C 141.95827468306396 103.33938412071056 146.04726645588002 102.4638903941273 150.00000000000003 101.13999999999999 C 148.65 100.71 147.25 100.42 145.92 99.91 C 143.6464506919353 99.04133511862062 141.596286547452 97.67455902229841 139.92 95.91 C 139.77812126921646 95.71163856083476 139.61368651301652 95.53042474787972 139.42999999999998 95.36999999999999 C 139.2 95.24 139.01 95.36999999999999 138.73 95.36999999999999 L 137.39 95.64999999999999 C 135.48 96.07 133.61 96.47 131.73 96.81 Z M 78.61 22.47 C 96.495544247715 22.466687154561054 113.32410573516673 30.94102086748491 123.97101762818664 45.31238027271124 C 134.61792952120658 59.68373967793757 137.82292036212488 78.25099169121543 132.61 95.36000000000001 Q 142.42000000000002 93.44 152.09 90.84 C 152.44 90.75 152.99 90.69 153.09 90.42 C 153.20302629190812 90.03686862922028 153.2602807592063 89.63945526797416 153.26 89.24 C 153.38 88.41 153.48 87.57 153.57 86.74 C 153.73999999999998 85.14999999999999 153.85 83.55 153.91 81.94999999999999 C 154.0166632404267 79.25008606913079 153.98328511338008 76.54645777835304 153.81 73.84999999999998 C 153.20420565202244 64.5515163654237 150.87460720223504 55.44675386516295 146.94 47.000000000000014 C 139.18765737328374 30.49661500360943 125.75121115790454 17.337062527939512 109.08999999999992 9.929999999999964 C 85.2236742283434 -0.6303947812744486 57.593141881111734 1.9039201001409864 36.04610276483071 16.629698486924624 C 14.49906364854968 31.355476873708263 2.1007497313152186 56.17786357844088 3.269999999999996 82.25 C 3.34 83.85 3.46 85.44 3.63 87.03 C 3.71 87.82000000000001 3.81 88.6 3.92 89.38 C 3.92 89.64 3.92 90.38 4.1 90.55 C 4.279999999999999 90.72 5.1899999999999995 90.85 5.43 90.92 C 8.62 91.78 11.83 92.58 15.04 93.32000000000001 C 18.25 94.06000000000002 21.4 94.72000000000001 24.6 95.32000000000001 C 19.39549318892861 78.21257154362306 22.604198743883092 59.650928764892846 33.249695146244406 45.28345139815038 C 43.89519154860572 30.915974031407927 60.7184174129654 22.44192862792302 78.6 22.440000000000012 Z M 78.61 0.1 C 56.0347408809198 0.08348438166264738 34.54312453115736 9.77832033192052 19.614438300756717 26.71280953276473 C 4.685752070356074 43.64729873360894 -2.2374144380803216 66.18502672301045 0.6099999999999994 88.57999999999997 C 0.6134981643560811 88.88374592698774 0.6537918720673748 89.18594873482246 0.7299999999999986 89.48 C 0.8699999999999994 89.72 1.1399999999999995 89.74000000000001 1.4499999999999993 89.82000000000001 L 3.249999999999999 90.33000000000001 C -1.3695273791801208 60.06722044557251 12.57996128496367 29.979851274632672 38.661715043459424 13.951190056425375 C 64.74346880195517 -2.077471161781915 97.88747356934199 -0.9316240520261374 122.80000000000001 16.860000000000028 C 129.44292268430956 21.618643921137036 135.28602792544314 27.404364535407947 140.11 34.000000000000014 C 150.2325399007044 47.789258896543984 155.39543331997623 64.59597474398919 154.76000000000002 81.68999999999996 C 154.66014128646103 84.59337646135062 154.38967466402988 87.4883710495949 153.95000000000002 90.36 L 156.04000000000002 89.77 C 156.53000000000003 89.64 156.48000000000002 89.53 156.54000000000002 89.06 C 156.60000000000002 88.59 156.65000000000003 88.16 156.70000000000002 87.72 C 156.88000000000002 86.16 157.01000000000002 84.6 157.10000000000002 83.03 Q 157.31000000000003 79.03 157.10000000000002 75.09 C 156.89726269294843 70.65290578778173 156.3219037552956 66.24070556240929 155.38 61.89999999999994 C 147.77704063148897 27.01829034566618 117.59973304398846 1.6562046087511817 81.93 0.1700000000000017 C 80.82 0.12 79.71 0.1 78.61 0.1 Z M 131.74 78.71 C 131.73803415205185 84.61545377059507 130.75116239467738 90.47922945225503 128.82000000000002 96.06 L 130.57000000000002 95.74000000000001 C 130.86873589642812 95.7225463346559 131.1642395107422 95.66881840478061 131.45000000000002 95.58000000000001 C 131.83 95.4 131.77 95.42000000000002 131.91000000000003 94.98000000000002 C 132.24000000000004 93.88000000000002 132.53000000000003 92.78000000000002 132.79000000000002 91.67000000000002 C 133.30007616516374 89.50794124881244 133.68075199505518 87.31738559610366 133.93 85.11 C 134.35568007289837 81.12132522027893 134.35568007289837 77.09867477972108 133.93 73.11 C 133.24880678461213 66.45718850503813 131.3684677728094 59.98272390764163 128.38 53.99999999999998 C 115.71354207318629 28.74747067897889 86.14056991452429 16.98631155880156 59.5908897894721 26.642598566662365 C 33.04120966441991 36.29888557452317 17.933868514139718 64.31055795437545 24.450000000000017 91.80000000000004 C 24.7 92.86 24.99 93.91 25.3 94.95 C 25.44 95.4 25.38 95.39 25.77 95.57000000000001 C 26.05657533793572 95.65730844609635 26.351525455616702 95.7142874461029 26.65 95.74000000000001 L 28.4 96.06 C 21.670997211637165 76.59225834205733 26.800655760573015 54.9893642486632 41.56320960116936 40.6248437940958 C 56.32576344176571 26.260323339528412 78.06076223463674 21.72289482626573 97.33735949094643 28.981354856067114 C 116.61395674725614 36.2398148858685 129.95819868729174 53.98607187388906 131.58 74.51999999999997 C 131.68 75.92 131.74 77.31 131.74 78.71 Z" stroke-linecap="round" />
</g>
</g>
</g>
</g>
</g>
<g transform="matrix(0.9645206591306692 1.6614848776627056 -1.6614848776627056 0.9645206591306692 320.007867206619 511.70502087661083)" id="tagline-7dfcb3ca-2c9d-4f44-ba55-5f136b1dd3e1-logo-0"  >
<g style=""  paint-order="stroke"   >
		<g transform="matrix(1 0 0 1 0 0)" id="b87d6f6c-8b27-4079-9081-ed9d78a79058-path-0"  >
<path style="stroke: none; stroke-width: 0; stroke-dasharray: none; stroke-linecap: butt; stroke-dashoffset: 0; stroke-linejoin: miter; stroke-miterlimit: 4; fill: rgb(255,252,242); fill-rule: nonzero; opacity: 1;"  paint-order="stroke"  transform=" translate(-12.56, 13.3)" d="M 11.63 -0.8 L 11.63 -0.76 L 7.14 -0.76 L 7.14 -25.84 L 11.63 -25.84 C 16.8 -25.84 20.29 -20.75 20.29 -13.34 C 20.29 -5.66 16.57 -0.8 11.63 -0.8 Z M 0.84 0 L 11.63 0 L 11.63 -0.04 C 18.85 -0.04 24.28 -5.21 24.28 -13.34 C 24.28 -21.17 19.19 -26.6 11.63 -26.6 L 0.84 -26.6 C 2.09 -26.07 3.34 -25.61 3.34 -23.14 L 3.34 -3.46 C 3.34 -0.99 2.09 -0.53 0.84 0 Z" stroke-linecap="round" />
</g>
</g>
</g>
<g transform="matrix(1.3594672765130102 1.3574538020433746 -1.3574538020433748 1.3594672765130105 378.28321020563374 587.3950321663522)" id="tagline-7dfcb3ca-2c9d-4f44-ba55-5f136b1dd3e1-logo-1"  >
<g style=""  paint-order="stroke"   >
		<g transform="matrix(1 0 0 1 0 1.77636e-15)" id="470271e1-99d2-43f4-8e82-e3128802b7a2-path-0"  >
<path style="stroke: none; stroke-width: 0; stroke-dasharray: none; stroke-linecap: butt; stroke-dashoffset: 0; stroke-linejoin: miter; stroke-miterlimit: 4; fill: rgb(255,252,242); fill-rule: nonzero; opacity: 1;"  paint-order="stroke"  transform=" translate(-11.02, 13.3)" d="M 0.84 0 L 19.04 0 L 21.2 -4.33 C 19.57 -2.93 17.82 -0.76 13.87 -0.76 L 7.14 -0.76 L 7.14 -12.92 L 12.16 -12.92 C 14.63 -12.92 15.09 -11.67 15.62 -10.41 L 15.62 -16.19 C 15.09 -14.93 14.63 -13.68 12.16 -13.68 L 7.14 -13.68 L 7.14 -25.84 L 14.25 -25.84 C 17.94 -25.84 18.62 -23.98 19.42 -22.08 L 19.42 -26.6 L 0.84 -26.6 C 2.09 -26.07 3.34 -25.61 3.34 -23.14 L 3.34 -3.46 C 3.34 -0.99 2.09 -0.53 0.84 0 Z" stroke-linecap="round" />
</g>
</g>
</g>
<g transform="matrix(1.6450621381918673 0.9922714659201463 -0.9922714659201463 1.6450621381918673 448.31310086734413 642.122467108641)" id="tagline-7dfcb3ca-2c9d-4f44-ba55-5f136b1dd3e1-logo-2"  >
<g style=""  paint-order="stroke"   >
		<g transform="matrix(1 0 0 1 0 0)" id="b5a03feb-af9b-4591-a24b-f5abdff08655-path-0"  >
<path style="stroke: none; stroke-width: 0; stroke-dasharray: none; stroke-linecap: butt; stroke-dashoffset: 0; stroke-linejoin: miter; stroke-miterlimit: 4; fill: rgb(255,252,242); fill-rule: nonzero; opacity: 1;"  paint-order="stroke"  transform=" translate(-10.165, 13.32)" d="M 9.42 -0.42 C 7.22 -0.42 5.02 -1.18 3.19 -2.58 C 1.94 -3.76 2.62 -4.79 3.34 -5.89 L 0.84 -3.72 C 3.08 -1.18 6.27 0.34 9.42 0.34 C 15.24 0.34 19.49 -2.24 19.49 -7.45 C 19.49 -15.54 5.43 -14.86 5.43 -21.43 C 5.43 -24.05 7.22 -26.22 10.34 -26.22 C 11.78 -26.22 13.15 -25.99 14.36 -25.54 C 15.88 -24.7 15.43 -23.6 14.97 -22.38 L 16.57 -24.47 L 16.95 -25 C 15.09 -26.26 12.84 -26.98 10.34 -26.98 C 4.75 -26.98 1.44 -24.09 1.44 -20.22 C 1.44 -11.93 15.5 -12.43 15.5 -6 C 15.5 -3.08 13.3 -0.42 9.42 -0.42 Z" stroke-linecap="round" />
</g>
</g>
</g>
<g transform="matrix(1.8422638428170761 0.5448816697601192 -0.5448816697601193 1.8422638428170763 534.1098553540342 679.9729383632036)" id="tagline-7dfcb3ca-2c9d-4f44-ba55-5f136b1dd3e1-logo-3"  >
<g style=""  paint-order="stroke"   >
		<g transform="matrix(1 0 0 1 0 0)" id="33be1ae4-6c01-4507-92ee-06ea9f1afcbd-path-0"  >
<path style="stroke: none; stroke-width: 0; stroke-dasharray: none; stroke-linecap: butt; stroke-dashoffset: 0; stroke-linejoin: miter; stroke-miterlimit: 4; fill: rgb(255,252,242); fill-rule: nonzero; opacity: 1;"  paint-order="stroke"  transform=" translate(-12.56, 13.3)" d="M 11.63 -0.8 L 11.63 -0.76 L 7.14 -0.76 L 7.14 -25.84 L 11.63 -25.84 C 16.8 -25.84 20.29 -20.75 20.29 -13.34 C 20.29 -5.66 16.57 -0.8 11.63 -0.8 Z M 0.84 0 L 11.63 0 L 11.63 -0.04 C 18.85 -0.04 24.28 -5.21 24.28 -13.34 C 24.28 -21.17 19.19 -26.6 11.63 -26.6 L 0.84 -26.6 C 2.09 -26.07 3.34 -25.61 3.34 -23.14 L 3.34 -3.46 C 3.34 -0.99 2.09 -0.53 0.84 0 Z" stroke-linecap="round" />
</g>
</g>
</g>
<g transform="matrix(1.9204326904696392 0.05263441808605389 -0.0526344180860539 1.9204326904696396 628.4480699525428 694.9456762223101)" id="tagline-7dfcb3ca-2c9d-4f44-ba55-5f136b1dd3e1-logo-4"  >
<g style=""  paint-order="stroke"   >
		<g transform="matrix(1 0 0 1 0 0)" id="e2a756a6-3fb0-4104-9e3b-a70dd377f2e3-path-0"  >
<path style="stroke: none; stroke-width: 0; stroke-dasharray: none; stroke-linecap: butt; stroke-dashoffset: 0; stroke-linejoin: miter; stroke-miterlimit: 4; fill: rgb(255,252,242); fill-rule: nonzero; opacity: 1;"  paint-order="stroke"  transform=" translate(-11.02, 13.3)" d="M 0.84 0 L 19.04 0 L 21.2 -4.33 C 19.57 -2.93 17.82 -0.76 13.87 -0.76 L 7.14 -0.76 L 7.14 -12.92 L 12.16 -12.92 C 14.63 -12.92 15.09 -11.67 15.62 -10.41 L 15.62 -16.19 C 15.09 -14.93 14.63 -13.68 12.16 -13.68 L 7.14 -13.68 L 7.14 -25.84 L 14.25 -25.84 C 17.94 -25.84 18.62 -23.98 19.42 -22.08 L 19.42 -26.6 L 0.84 -26.6 C 2.09 -26.07 3.34 -25.61 3.34 -23.14 L 3.34 -3.46 C 3.34 -0.99 2.09 -0.53 0.84 0 Z" stroke-linecap="round" />
</g>
</g>
</g>
<g transform="matrix(0.9835124026463206 -0.18084068635365635 0.18084068635365638 0.9835124026463207 365.0590152953864 364.53750872885473)" id="tagline-7dfcb3ca-2c9d-4f44-ba55-5f136b1dd3e1-logo-5"  >
<g style=""  paint-order="stroke"   >
		<g transform="matrix(1 0 0 1 0 0)" id="e3d64e9c-7ca3-46c1-ac06-0b2b612dd95b-path-0"  >
<path style="stroke: none; stroke-width: 0; stroke-dasharray: none; stroke-linecap: butt; stroke-dashoffset: 0; stroke-linejoin: miter; stroke-miterlimit: 4; fill: rgb(255,252,242); fill-rule: nonzero; opacity: 1;"  paint-order="stroke"  transform=" translate(0, 0)" d="" stroke-linecap="round" />
</g>
</g>
</g>
<g transform="matrix(1.7829131818721922 -0.7155785676626234 0.7155785676626235 1.7829131818721924 775.5675337786885 668.2560665111366)" id="tagline-7dfcb3ca-2c9d-4f44-ba55-5f136b1dd3e1-logo-6"  >
<g style=""  paint-order="stroke"   >
		<g transform="matrix(1 0 0 1 0 0)" id="76eaa24b-9cd8-435e-97ba-724bf7abde15-path-0"  >
<path style="stroke: none; stroke-width: 0; stroke-dasharray: none; stroke-linecap: butt; stroke-dashoffset: 0; stroke-linejoin: miter; stroke-miterlimit: 4; fill: rgb(255,252,242); fill-rule: nonzero; opacity: 1;"  paint-order="stroke"  transform=" translate(-9.39, 13.49)" d="M 0.84 0 L 17.94 0 L 17.94 -4.52 C 17.14 -2.66 16.45 -0.76 12.77 -0.76 L 5.05 -0.76 C 5.62 -10.79 17.63 -11.74 17.63 -19.84 C 17.63 -23.71 13.95 -26.98 7.98 -26.98 C 5.47 -26.98 3.04 -25.54 1.37 -23.86 L 1.75 -23.33 L 3.34 -21.24 C 2.89 -22.46 2.36 -23.71 3.69 -24.81 C 4.94 -25.65 6.42 -26.22 7.98 -26.22 C 11.48 -26.22 13.64 -23.67 13.64 -21.05 C 13.64 -14.48 0.84 -12.81 0.84 0 Z" stroke-linecap="round" />
</g>
</g>
</g>
<g transform="matrix(1.5583432591783293 -1.1235650346843207 1.1235650346843207 1.5583432591783293 853.9674869003112 625.4756651724306)" id="tagline-7dfcb3ca-2c9d-4f44-ba55-5f136b1dd3e1-logo-7"  >
<g style=""  paint-order="stroke"   >
		<g transform="matrix(1 0 0 1 0 0)" id="1ce53cd0-81cd-4d05-b508-6ace638f3679-path-0"  >
<path style="stroke: none; stroke-width: 0; stroke-dasharray: none; stroke-linecap: butt; stroke-dashoffset: 0; stroke-linejoin: miter; stroke-miterlimit: 4; fill: rgb(255,252,242); fill-rule: nonzero; opacity: 1;"  paint-order="stroke"  transform=" translate(-11.23, 13.32)" d="M 11.25 0.34 C 17.33 0.34 21.62 -5.21 21.62 -13.34 C 21.62 -21.17 17.67 -26.98 11.25 -26.98 C 5.13 -26.98 0.84 -21.47 0.84 -13.34 C 0.84 -5.47 4.79 0.34 11.25 0.34 Z M 11.25 -0.42 C 7.18 -0.42 4.83 -5.89 4.83 -13.34 C 4.83 -21.01 7.41 -26.22 11.25 -26.22 C 15.28 -26.22 17.63 -20.75 17.63 -13.34 C 17.63 -5.66 15.05 -0.42 11.25 -0.42 Z" stroke-linecap="round" />
</g>
</g>
</g>
<g transform="matrix(1.2775230229813175 -1.4348404184244299 1.4348404184244299 1.2775230229813175 913.3888270143127 571.4163780236337)" id="tagline-7dfcb3ca-2c9d-4f44-ba55-5f136b1dd3e1-logo-8"  >
<g style=""  paint-order="stroke"   >
		<g transform="matrix(1 0 0 1 0 0)" id="e3d0bbc6-2e85-4d28-9de2-65e11ccbf347-path-0"  >
<path style="stroke: none; stroke-width: 0; stroke-dasharray: none; stroke-linecap: butt; stroke-dashoffset: 0; stroke-linejoin: miter; stroke-miterlimit: 4; fill: rgb(255,252,242); fill-rule: nonzero; opacity: 1;"  paint-order="stroke"  transform=" translate(-5.245, 13.49)" d="M 0.84 0 L 9.65 0 C 8.4 -0.53 7.14 -0.99 7.14 -3.46 L 7.14 -26.98 L 1.1 -23.94 C 2.47 -24.05 3.34 -24.09 3.34 -21.62 L 3.34 -3.46 C 3.34 -0.99 2.09 -0.53 0.84 0 Z" stroke-linecap="round" />
</g>
</g>
</g>
<g transform="matrix(0.9437527998142383 -1.67336868425177 1.6733686842517705 0.9437527998142384 959.3475100059287 507.65840398153324)" id="tagline-7dfcb3ca-2c9d-4f44-ba55-5f136b1dd3e1-logo-9"  >
<g style=""  paint-order="stroke"   >
		<g transform="matrix(1 0 0 1 0 0)" id="0d9d7d20-78ce-485b-8cc9-389dba174a1b-path-0"  >
<path style="stroke: none; stroke-width: 0; stroke-dasharray: none; stroke-linecap: butt; stroke-dashoffset: 0; stroke-linejoin: miter; stroke-miterlimit: 4; fill: rgb(255,252,242); fill-rule: nonzero; opacity: 1;"  paint-order="stroke"  transform=" translate(-10.415, 13.32)" d="M 9.58 -0.42 C 7.6 -0.42 6.27 -0.95 5.21 -1.75 C 3.91 -2.93 4.48 -4.18 4.94 -5.4 L 3.34 -3.31 L 2.96 -2.77 C 4.71 -1.03 6.31 0.34 9.58 0.34 C 15.69 0.34 19.99 -5.17 19.99 -13.3 C 19.99 -21.17 16.04 -26.98 9.58 -26.98 C 4.14 -26.98 0.84 -22.91 0.84 -18.24 C 0.84 -13.79 3.91 -9.5 9.58 -9.5 C 12.81 -9.5 15.05 -11.63 16 -14.36 L 16 -13.3 C 16 -5.62 13.41 -0.42 9.58 -0.42 Z M 9.58 -10.26 C 6.27 -10.26 4.83 -14.14 4.83 -18.24 C 4.83 -22.5 6.42 -26.22 9.58 -26.22 C 12.84 -26.22 15.01 -22.65 15.73 -17.4 C 15.69 -13.68 13.45 -10.26 9.58 -10.26 Z" stroke-linecap="round" />
</g>
</g>
</g>
<g transform="matrix(1.9211538461538462 0 0 1.9211538461538462 638.7291000290783 565.7885400632564)" id="tagline-aa972bb6-df09-4cc1-a477-7de58f49eaec-logo"  >
<g style=""  paint-order="stroke"   >
		<g transform="matrix(1 0 0 1 0 0)" id="tagline-aa972bb6-df09-4cc1-a477-7de58f49eaec-logo-path-0"  >
<filter id="SVGID_297503" y="-20%" height="140%" x="-21.219132976341314%" width="142.43826595268263%" >
	<feGaussianBlur in="SourceAlpha" stdDeviation="0"></feGaussianBlur>
	<feOffset dx="1.2753350065506501" dy="0" result="oBlur" ></feOffset>
	<feFlood flood-color="rgb(208,202,183)" flood-opacity="1"/>
	<feComposite in2="oBlur" operator="in" />
	<feMerge>
		<feMergeNode></feMergeNode>
		<feMergeNode in="SourceGraphic"></feMergeNode>
	</feMerge>
</filter>
<path style="stroke: none; stroke-width: 0; stroke-dasharray: none; stroke-linecap: butt; stroke-dashoffset: 0; stroke-linejoin: miter; stroke-miterlimit: 4; fill: rgb(0,0,0); fill-rule: nonzero; opacity: 1;filter: url(#SVGID_297503);"  paint-order="stroke"  transform=" translate(-52.964999999999996, 11.93)" d="M 6.57 -0.33 L 6.57 0 L 16.2 0 L 16.2 -0.33 C 15.02 -0.33 13.7 -0.56 13.7 -1.82 L 13.7 -21.62 C 16.6 -21.62 18.81 -19.3 20.99 -19.3 C 20.92 -20.79 20.86 -21.62 22.11 -23.1 C 21.19 -23.1 20.03 -22.77 19.14 -22.77 L 3.63 -22.77 C 2.74 -22.77 1.58 -23.1 0.66 -23.1 C 1.91 -21.62 1.85 -20.79 1.78 -19.3 C 3.96 -19.3 6.17 -21.62 9.08 -21.62 L 9.08 -1.82 C 9.08 -0.56 7.76 -0.33 6.57 -0.33 Z M 39.44 -1.72 L 31.15 -24.12 L 29.4 -24.12 C 28.81 -22.74 28.05 -21.68 27.23 -21.35 L 27.52 -20.53 L 24.25 -11.58 L 23.2 -11.58 C 23.5 -11.38 23.76 -11.15 23.99 -10.92 L 20.63 -1.72 C 20.2 -0.53 18.68 -0.33 17.49 -0.33 L 17.49 0 L 23.07 0 L 23.07 -0.33 C 22.24 -0.33 21.52 -0.53 21.95 -1.72 L 24.91 -9.9 C 25.48 -9.14 25.84 -8.38 25.97 -7.72 C 26.56 -8.09 28.08 -8.15 28.81 -8.15 C 30.43 -8.15 31.18 -7.46 32.17 -6.2 L 33.4 -4.72 L 34.48 -1.75 C 34.91 -0.56 33.79 -0.36 32.6 -0.4 L 32.6 -0.07 L 41.81 0 L 41.81 -0.33 C 40.99 -0.33 39.86 -0.53 39.44 -1.72 Z M 27.06 -11.58 L 25.51 -11.58 L 28.15 -18.84 L 32.54 -7.06 L 30.43 -9.64 C 29.44 -10.89 28.68 -11.58 27.06 -11.58 Z M 65.08 -1.72 L 56.79 -24.12 L 55.04 -24.12 C 54.45 -22.74 53.69 -21.68 52.87 -21.35 L 53.16 -20.53 L 49.9 -11.58 L 48.84 -11.58 C 49.14 -11.38 49.4 -11.15 49.63 -10.92 L 46.27 -1.72 C 45.84 -0.53 44.32 -0.33 43.13 -0.33 L 43.13 0 L 48.71 0 L 48.71 -0.33 C 47.88 -0.33 47.16 -0.53 47.59 -1.72 L 50.56 -9.9 C 51.12 -9.14 51.48 -8.38 51.61 -7.72 C 52.21 -8.09 53.72 -8.15 54.45 -8.15 C 56.07 -8.15 56.83 -7.46 57.82 -6.2 L 59.04 -4.72 L 60.13 -1.75 C 60.56 -0.56 59.43 -0.36 58.25 -0.4 L 58.25 -0.07 L 67.45 0 L 67.45 -0.33 C 66.63 -0.33 65.51 -0.53 65.08 -1.72 Z M 52.7 -11.58 L 51.15 -11.58 L 53.79 -18.84 L 58.18 -7.06 L 56.07 -9.64 C 55.08 -10.89 54.32 -11.58 52.7 -11.58 Z M 77.35 -21.02 C 80.29 -21.02 81.28 -18.18 84.22 -17.98 C 84.15 -20.03 84.88 -20.69 86.36 -22.74 C 80.98 -21.09 81.58 -23.1 76.82 -23.1 C 73.29 -23.1 70.09 -20.92 70.09 -16.66 C 70.09 -10.07 81.51 -9.57 81.51 -4.72 C 81.51 -2.51 79.17 -1.82 77.78 -1.82 C 75.5 -1.82 73.85 -5.25 70.92 -5.45 C 70.98 -3.4 70.26 -2.15 68.77 -0.1 C 75.6 -2.18 74.22 0.26 78.31 0.26 C 82.34 0.26 86.13 -2.01 86.13 -6.3 C 86.13 -12.28 74.32 -14.69 74.32 -18.51 C 74.32 -20.26 75.77 -21.02 77.35 -21.02 Z M 96.26 -21.02 C 99.2 -21.02 100.19 -18.18 103.13 -17.98 C 103.06 -20.03 103.79 -20.69 105.27 -22.74 C 99.89 -21.09 100.49 -23.1 95.73 -23.1 C 92.2 -23.1 89 -20.92 89 -16.66 C 89 -10.07 100.42 -9.57 100.42 -4.72 C 100.42 -2.51 98.08 -1.82 96.69 -1.82 C 94.41 -1.82 92.76 -5.25 89.83 -5.45 C 89.89 -3.4 89.17 -2.15 87.68 -0.1 C 94.51 -2.18 93.13 0.26 97.22 0.26 C 101.24 0.26 105.04 -2.01 105.04 -6.3 C 105.04 -12.28 93.23 -14.69 93.23 -18.51 C 93.23 -20.26 94.68 -21.02 96.26 -21.02 Z" stroke-linecap="round" />
</g>
</g>
</g>
<g transform="matrix(1.9211538461538462 0 0 1.9211538461538462 638.9992725809652 859.2877187515155)" id="tagline-47e4ba6e-68b3-4cf3-846c-0eff6c501f3a-logo"  >
<g style=""  paint-order="stroke"   >
		<g transform="matrix(1 0 0 1 -0.13200000000006185 -17.40960000000001)" id="tagline-47e4ba6e-68b3-4cf3-846c-0eff6c501f3a-logo-path-0"  >
<path style="stroke: none; stroke-width: 0; stroke-dasharray: none; stroke-linecap: butt; stroke-dashoffset: 0; stroke-linejoin: miter; stroke-miterlimit: 4; fill: rgb(0,0,0); fill-rule: nonzero; opacity: 1;"  paint-order="stroke"  transform=" translate(-87.495, 8.41)" d="M 4.3 0 L 9.86 0 C 9.07 -0.34 8.28 -0.62 8.28 -2.18 L 8.28 -16.32 L 10.37 -16.32 C 12.7 -16.32 13.13 -15.14 13.63 -13.94 L 13.63 -16.8 L 0.53 -16.8 L 0.53 -13.94 C 1.03 -15.14 1.46 -16.32 3.82 -16.32 L 5.88 -16.32 L 5.88 -2.18 C 5.88 -0.62 5.09 -0.34 4.3 0 Z M 24.14 0 L 35.64 0 L 37.01 -2.74 C 35.98 -1.85 34.87 -0.48 32.38 -0.48 L 28.13 -0.48 L 28.13 -8.16 L 31.3 -8.16 C 32.86 -8.16 33.14 -7.37 33.48 -6.58 L 33.48 -10.22 C 33.14 -9.43 32.86 -8.64 31.3 -8.64 L 28.13 -8.64 L 28.13 -16.32 L 32.62 -16.32 C 34.94 -16.32 35.38 -15.14 35.88 -13.94 L 35.88 -16.8 L 24.14 -16.8 C 24.94 -16.46 25.73 -16.18 25.73 -14.62 L 25.73 -2.18 C 25.73 -0.62 24.94 -0.34 24.14 0 Z M 55.92 0 L 61.73 0 C 60.94 -0.34 59.81 -0.53 58.94 -1.82 L 55.42 -7.1 C 57.7 -8.18 59.54 -9.65 59.54 -12.19 C 59.54 -14.69 57.17 -16.8 53.38 -16.8 L 47.52 -16.8 C 48.31 -16.46 49.1 -16.18 49.1 -14.62 L 49.1 -2.18 C 49.1 -0.62 48.31 -0.34 47.52 0 L 53.09 0 C 52.3 -0.34 51.5 -0.62 51.5 -2.18 L 51.5 -5.57 L 53.3 -6.22 L 56.28 -1.8 C 57.14 -0.53 56.71 -0.34 55.92 0 Z M 51.5 -6.31 L 51.5 -16.32 L 53.38 -16.32 C 55.61 -16.32 57.02 -14.74 57.02 -12.19 C 57.02 -8.47 54.41 -7.37 51.5 -6.31 Z M 79.54 0.22 C 81.53 0.22 83.54 -0.74 84.96 -2.35 L 83.38 -3.72 C 83.76 -2.95 84.1 -2.28 82.92 -1.25 C 81.89 -0.6 80.71 -0.26 79.54 -0.26 C 75.77 -0.26 73.56 -3.72 73.56 -8.42 C 73.56 -13.27 75.91 -16.56 79.3 -16.56 C 80.21 -16.56 81.07 -16.42 81.84 -16.13 C 82.8 -15.6 82.51 -14.9 82.22 -14.14 L 83.23 -15.46 L 83.47 -15.79 C 82.3 -16.58 80.88 -17.04 79.3 -17.04 C 74.47 -17.04 71.04 -13.56 71.04 -8.42 C 71.04 -3.46 74.26 0.22 79.54 0.22 Z M 95.47 0 L 106.97 0 L 108.34 -2.74 C 107.3 -1.85 106.2 -0.48 103.7 -0.48 L 99.46 -0.48 L 99.46 -8.16 L 102.62 -8.16 C 104.18 -8.16 104.47 -7.37 104.81 -6.58 L 104.81 -10.22 C 104.47 -9.43 104.18 -8.64 102.62 -8.64 L 99.46 -8.64 L 99.46 -16.32 L 103.94 -16.32 C 106.27 -16.32 106.7 -15.14 107.21 -13.94 L 107.21 -16.8 L 95.47 -16.8 C 96.26 -16.46 97.06 -16.18 97.06 -14.62 L 97.06 -2.18 C 97.06 -0.62 96.26 -0.34 95.47 0 Z M 118.85 0 L 124.42 0 C 123.62 -0.34 122.83 -0.62 122.83 -2.18 L 122.83 -14.62 C 122.83 -16.18 123.62 -16.46 124.42 -16.8 L 118.85 -16.8 C 119.64 -16.46 120.43 -16.18 120.43 -14.62 L 120.43 -2.18 C 120.43 -0.62 119.64 -0.34 118.85 0 Z M 143.33 0 L 149.14 0 C 148.34 -0.34 147.22 -0.53 146.35 -1.82 L 142.82 -7.1 C 145.1 -8.18 146.95 -9.65 146.95 -12.19 C 146.95 -14.69 144.58 -16.8 140.78 -16.8 L 134.93 -16.8 C 135.72 -16.46 136.51 -16.18 136.51 -14.62 L 136.51 -2.18 C 136.51 -0.62 135.72 -0.34 134.93 0 L 140.5 0 C 139.7 -0.34 138.91 -0.62 138.91 -2.18 L 138.91 -5.57 L 140.71 -6.22 L 143.69 -1.8 C 144.55 -0.53 144.12 -0.34 143.33 0 Z M 138.91 -6.31 L 138.91 -16.32 L 140.78 -16.32 C 143.02 -16.32 144.43 -14.74 144.43 -12.19 C 144.43 -8.47 141.82 -7.37 138.91 -6.31 Z M 166.46 0.22 C 171.02 0.22 174.46 -3.29 174.46 -8.42 C 174.46 -13.37 171.24 -17.04 166.46 -17.04 C 161.88 -17.04 158.45 -13.56 158.45 -8.42 C 158.45 -3.46 161.66 0.22 166.46 0.22 Z M 166.46 -0.26 C 163.18 -0.26 160.97 -3.72 160.97 -8.42 C 160.97 -13.27 163.32 -16.56 166.46 -16.56 C 169.73 -16.56 171.94 -13.1 171.94 -8.42 C 171.94 -3.58 169.58 -0.26 166.46 -0.26 Z" stroke-linecap="round" />
</g>
		<g transform="matrix(1 0 0 1 0 13.749599999999987)" id="tagline-47e4ba6e-68b3-4cf3-846c-0eff6c501f3a-logo-path-1"  >
<path style="stroke: none; stroke-width: 0; stroke-dasharray: none; stroke-linecap: butt; stroke-dashoffset: 0; stroke-linejoin: miter; stroke-miterlimit: 4; fill: rgb(0,0,0); fill-rule: nonzero; opacity: 1;"  paint-order="stroke"  transform=" translate(-277.275, 8.71)" d="M 14.54 0 L 16.54 0 C 15.74 -0.34 14.71 -0.58 14.16 -2.04 L 8.35 -16.8 L 5.69 -16.8 C 6.72 -16.32 7.46 -15.96 6.77 -13.9 L 2.81 -2.06 C 2.3 -0.6 1.32 -0.34 0.53 0 L 4.18 0 C 3.38 -0.34 2.78 -0.6 3.29 -2.06 L 4.54 -5.76 L 10.18 -5.76 L 11.66 -1.97 C 12.19 -0.6 13.1 0 14.54 0 Z M 4.68 -6.24 L 7.13 -13.51 L 9.98 -6.24 Z M 33.86 -0.5 L 33.86 -0.48 L 31.03 -0.48 L 31.03 -16.32 L 33.86 -16.32 C 37.13 -16.32 39.34 -13.1 39.34 -8.42 C 39.34 -3.58 36.98 -0.5 33.86 -0.5 Z M 27.05 0 L 33.86 0 L 33.86 -0.02 C 38.42 -0.02 41.86 -3.29 41.86 -8.42 C 41.86 -13.37 38.64 -16.8 33.86 -16.8 L 27.05 -16.8 C 27.84 -16.46 28.63 -16.18 28.63 -14.62 L 28.63 -2.18 C 28.63 -0.62 27.84 -0.34 27.05 0 Z M 60.38 0 L 61.15 0 L 66.91 -16.25 L 66.91 -2.18 C 66.91 -0.62 66.12 -0.34 65.33 0 L 70.9 0 C 70.1 -0.34 69.31 -0.62 69.31 -2.18 L 69.31 -14.62 C 69.31 -16.18 70.1 -16.46 70.9 -16.8 L 66.62 -16.8 L 61.68 -2.86 L 55.87 -16.8 L 52.37 -16.8 C 53.16 -16.46 53.95 -16.18 53.95 -14.62 L 53.95 -2.18 C 53.95 -0.62 53.16 -0.34 52.37 0 L 56.02 0 C 55.22 -0.34 54.43 -0.62 54.43 -2.18 L 54.43 -14.47 Z M 81.41 0 L 86.98 0 C 86.18 -0.34 85.39 -0.62 85.39 -2.18 L 85.39 -14.62 C 85.39 -16.18 86.18 -16.46 86.98 -16.8 L 81.41 -16.8 C 82.2 -16.46 82.99 -16.18 82.99 -14.62 L 82.99 -2.18 C 82.99 -0.62 82.2 -0.34 81.41 0 Z M 109.63 0 L 110.59 0 L 110.59 -14.62 C 110.59 -16.18 111.38 -16.46 112.18 -16.8 L 108.53 -16.8 C 109.32 -16.46 110.11 -16.18 110.11 -14.62 L 110.11 -3.67 L 101.47 -16.8 L 97.49 -16.8 C 98.28 -16.46 99.07 -16.18 99.07 -14.62 L 99.07 -2.18 C 99.07 -0.62 98.28 -0.34 97.49 0 L 101.14 0 C 100.34 -0.34 99.55 -0.62 99.55 -2.18 L 99.55 -15.34 Z M 122.69 0 L 128.26 0 C 127.46 -0.34 126.67 -0.62 126.67 -2.18 L 126.67 -14.62 C 126.67 -16.18 127.46 -16.46 128.26 -16.8 L 122.69 -16.8 C 123.48 -16.46 124.27 -16.18 124.27 -14.62 L 124.27 -2.18 C 124.27 -0.62 123.48 -0.34 122.69 0 Z M 144.19 -0.26 C 142.8 -0.26 141.41 -0.74 140.26 -1.63 C 139.46 -2.38 139.9 -3.02 140.35 -3.72 L 138.77 -2.35 C 140.18 -0.74 142.2 0.22 144.19 0.22 C 147.86 0.22 150.55 -1.42 150.55 -4.7 C 150.55 -9.82 141.67 -9.38 141.67 -13.54 C 141.67 -15.19 142.8 -16.56 144.77 -16.56 C 145.68 -16.56 146.54 -16.42 147.31 -16.13 C 148.27 -15.6 147.98 -14.9 147.7 -14.14 L 148.7 -15.46 L 148.94 -15.79 C 147.77 -16.58 146.35 -17.04 144.77 -17.04 C 141.24 -17.04 139.15 -15.22 139.15 -12.77 C 139.15 -7.54 148.03 -7.85 148.03 -3.79 C 148.03 -1.94 146.64 -0.26 144.19 -0.26 Z M 164.11 0 L 169.68 0 C 168.89 -0.34 168.1 -0.62 168.1 -2.18 L 168.1 -16.32 L 170.18 -16.32 C 172.51 -16.32 172.94 -15.14 173.45 -13.94 L 173.45 -16.8 L 160.34 -16.8 L 160.34 -13.94 C 160.85 -15.14 161.28 -16.32 163.63 -16.32 L 165.7 -16.32 L 165.7 -2.18 C 165.7 -0.62 164.9 -0.34 164.11 0 Z M 192.36 0 L 198.17 0 C 197.38 -0.34 196.25 -0.53 195.38 -1.82 L 191.86 -7.1 C 194.14 -8.18 195.98 -9.65 195.98 -12.19 C 195.98 -14.69 193.61 -16.8 189.82 -16.8 L 183.96 -16.8 C 184.75 -16.46 185.54 -16.18 185.54 -14.62 L 185.54 -2.18 C 185.54 -0.62 184.75 -0.34 183.96 0 L 189.53 0 C 188.74 -0.34 187.94 -0.62 187.94 -2.18 L 187.94 -5.57 L 189.74 -6.22 L 192.72 -1.8 C 193.58 -0.53 193.15 -0.34 192.36 0 Z M 187.94 -6.31 L 187.94 -16.32 L 189.82 -16.32 C 192.05 -16.32 193.46 -14.74 193.46 -12.19 C 193.46 -8.47 190.85 -7.37 187.94 -6.31 Z M 222.7 0 L 224.69 0 C 223.9 -0.34 222.86 -0.58 222.31 -2.04 L 216.5 -16.8 L 213.84 -16.8 C 214.87 -16.32 215.62 -15.96 214.92 -13.9 L 210.96 -2.06 C 210.46 -0.6 209.47 -0.34 208.68 0 L 212.33 0 C 211.54 -0.34 210.94 -0.6 211.44 -2.06 L 212.69 -5.76 L 218.33 -5.76 L 219.82 -1.97 C 220.34 -0.6 221.26 0 222.7 0 Z M 212.83 -6.24 L 215.28 -13.51 L 218.14 -6.24 Z M 242.02 0.22 C 244.01 0.22 246.02 -0.74 247.44 -2.35 L 245.86 -3.72 C 246.24 -2.95 246.58 -2.28 245.4 -1.25 C 244.37 -0.6 243.19 -0.26 242.02 -0.26 C 238.25 -0.26 236.04 -3.72 236.04 -8.42 C 236.04 -13.27 238.39 -16.56 241.78 -16.56 C 242.69 -16.56 243.55 -16.42 244.32 -16.13 C 245.28 -15.6 244.99 -14.9 244.7 -14.14 L 245.71 -15.46 L 245.95 -15.79 C 244.78 -16.58 243.36 -17.04 241.78 -17.04 C 236.95 -17.04 233.52 -13.56 233.52 -8.42 C 233.52 -3.7 236.42 -0.14 241.27 0.19 L 241.27 1.03 L 241.75 1.03 C 242.47 1.03 242.93 1.49 242.93 2.06 C 242.93 2.64 242.47 3.1 241.75 3.1 C 241.39 3.1 241.1 3 240.86 2.81 L 240.58 3.19 C 240.86 3.43 241.3 3.58 241.97 3.58 C 242.66 3.58 243.74 3.1 243.74 2.06 C 243.74 0.96 242.66 0.46 241.75 0.55 L 241.75 0.22 Z M 271.97 0 L 273.96 0 C 273.17 -0.34 272.14 -0.58 271.58 -2.04 L 265.78 -16.8 L 263.11 -16.8 C 264.14 -16.32 264.89 -15.96 264.19 -13.9 L 260.23 -2.06 C 259.73 -0.6 258.74 -0.34 257.95 0 L 261.6 0 C 260.81 -0.34 260.21 -0.6 260.71 -2.06 L 261.96 -5.76 L 267.6 -5.76 L 269.09 -1.97 C 269.62 -0.6 270.53 0 271.97 0 Z M 267.05 -18.96 C 267.82 -18.98 268.46 -19.61 268.46 -20.83 L 268.13 -20.83 C 268.08 -18.86 265.82 -21 263.93 -21 C 263.16 -20.98 262.51 -20.33 262.51 -19.1 L 262.82 -19.1 C 262.82 -19.22 262.82 -19.34 262.85 -19.44 C 263.11 -20.83 265.25 -18.96 267.05 -18.96 Z M 262.1 -6.24 L 264.55 -13.51 L 267.41 -6.24 Z M 290.81 0.22 C 295.37 0.22 298.8 -3.29 298.8 -8.42 C 298.8 -13.37 295.58 -17.04 290.81 -17.04 C 286.22 -17.04 282.79 -13.56 282.79 -8.42 C 282.79 -3.46 286.01 0.22 290.81 0.22 Z M 290.81 -0.26 C 287.52 -0.26 285.31 -3.72 285.31 -8.42 C 285.31 -13.27 287.66 -16.56 290.81 -16.56 C 294.07 -16.56 296.28 -13.1 296.28 -8.42 C 296.28 -3.58 293.93 -0.26 290.81 -0.26 Z M 337.58 0 L 339.58 0 C 338.78 -0.34 337.75 -0.58 337.2 -2.04 L 331.39 -16.8 L 328.73 -16.8 C 329.76 -16.32 330.5 -15.96 329.81 -13.9 L 325.85 -2.06 C 325.34 -0.6 324.36 -0.34 323.57 0 L 327.22 0 C 326.42 -0.34 325.82 -0.6 326.33 -2.06 L 327.58 -5.76 L 333.22 -5.76 L 334.7 -1.97 C 335.23 -0.6 336.14 0 337.58 0 Z M 327.72 -6.24 L 330.17 -13.51 L 333.02 -6.24 Z M 354.55 -0.26 C 353.16 -0.26 351.77 -0.74 350.62 -1.63 C 349.82 -2.38 350.26 -3.02 350.71 -3.72 L 349.13 -2.35 C 350.54 -0.74 352.56 0.22 354.55 0.22 C 358.22 0.22 360.91 -1.42 360.91 -4.7 C 360.91 -9.82 352.03 -9.38 352.03 -13.54 C 352.03 -15.19 353.16 -16.56 355.13 -16.56 C 356.04 -16.56 356.9 -16.42 357.67 -16.13 C 358.63 -15.6 358.34 -14.9 358.06 -14.14 L 359.06 -15.46 L 359.3 -15.79 C 358.13 -16.58 356.71 -17.04 355.13 -17.04 C 351.6 -17.04 349.51 -15.22 349.51 -12.77 C 349.51 -7.54 358.39 -7.85 358.39 -3.79 C 358.39 -1.94 357 -0.26 354.55 -0.26 Z M 376.85 -0.26 C 375.46 -0.26 374.06 -0.74 372.91 -1.63 C 372.12 -2.38 372.55 -3.02 373.01 -3.72 L 371.42 -2.35 C 372.84 -0.74 374.86 0.22 376.85 0.22 C 380.52 0.22 383.21 -1.42 383.21 -4.7 C 383.21 -9.82 374.33 -9.38 374.33 -13.54 C 374.33 -15.19 375.46 -16.56 377.42 -16.56 C 378.34 -16.56 379.2 -16.42 379.97 -16.13 C 380.93 -15.6 380.64 -14.9 380.35 -14.14 L 381.36 -15.46 L 381.6 -15.79 C 380.42 -16.58 379.01 -17.04 377.42 -17.04 C 373.9 -17.04 371.81 -15.22 371.81 -12.77 C 371.81 -7.54 380.69 -7.85 380.69 -3.79 C 380.69 -1.94 379.3 -0.26 376.85 -0.26 Z M 402.46 0.22 C 407.02 0.22 410.45 -3.29 410.45 -8.42 C 410.45 -13.37 407.23 -17.04 402.46 -17.04 C 397.87 -17.04 394.44 -13.56 394.44 -8.42 C 394.44 -3.46 397.66 0.22 402.46 0.22 Z M 402.46 -0.26 C 399.17 -0.26 396.96 -3.72 396.96 -8.42 C 396.96 -13.27 399.31 -16.56 402.46 -16.56 C 405.72 -16.56 407.93 -13.1 407.93 -8.42 C 407.93 -3.58 405.58 -0.26 402.46 -0.26 Z M 430.66 0.22 C 432.65 0.22 434.66 -0.74 436.08 -2.35 L 434.5 -3.72 C 434.88 -2.95 435.22 -2.28 434.04 -1.25 C 433.01 -0.6 431.83 -0.26 430.66 -0.26 C 426.89 -0.26 424.68 -3.72 424.68 -8.42 C 424.68 -13.27 427.03 -16.56 430.42 -16.56 C 431.33 -16.56 432.19 -16.42 432.96 -16.13 C 433.92 -15.6 433.63 -14.9 433.34 -14.14 L 434.35 -15.46 L 434.59 -15.79 C 433.42 -16.58 432 -17.04 430.42 -17.04 C 425.59 -17.04 422.16 -13.56 422.16 -8.42 C 422.16 -3.46 425.38 0.22 430.66 0.22 Z M 446.59 0 L 452.16 0 C 451.37 -0.34 450.58 -0.62 450.58 -2.18 L 450.58 -14.62 C 450.58 -16.18 451.37 -16.46 452.16 -16.8 L 446.59 -16.8 C 447.38 -16.46 448.18 -16.18 448.18 -14.62 L 448.18 -2.18 C 448.18 -0.62 447.38 -0.34 446.59 0 Z M 476.69 0 L 478.68 0 C 477.89 -0.34 476.86 -0.58 476.3 -2.04 L 470.5 -16.8 L 467.83 -16.8 C 468.86 -16.32 469.61 -15.96 468.91 -13.9 L 464.95 -2.06 C 464.45 -0.6 463.46 -0.34 462.67 0 L 466.32 0 C 465.53 -0.34 464.93 -0.6 465.43 -2.06 L 466.68 -5.76 L 472.32 -5.76 L 473.81 -1.97 C 474.34 -0.6 475.25 0 476.69 0 Z M 466.82 -6.24 L 469.27 -13.51 L 472.13 -6.24 Z M 496.01 -0.5 L 496.01 -0.48 L 493.18 -0.48 L 493.18 -16.32 L 496.01 -16.32 C 499.27 -16.32 501.48 -13.1 501.48 -8.42 C 501.48 -3.58 499.13 -0.5 496.01 -0.5 Z M 489.19 0 L 496.01 0 L 496.01 -0.02 C 500.57 -0.02 504 -3.29 504 -8.42 C 504 -13.37 500.78 -16.8 496.01 -16.8 L 489.19 -16.8 C 489.98 -16.46 490.78 -16.18 490.78 -14.62 L 490.78 -2.18 C 490.78 -0.62 489.98 -0.34 489.19 0 Z M 523.73 0.22 C 528.29 0.22 531.72 -3.29 531.72 -8.42 C 531.72 -13.37 528.5 -17.04 523.73 -17.04 C 519.14 -17.04 515.71 -13.56 515.71 -8.42 C 515.71 -3.46 518.93 0.22 523.73 0.22 Z M 523.73 -0.26 C 520.44 -0.26 518.23 -3.72 518.23 -8.42 C 518.23 -13.27 520.58 -16.56 523.73 -16.56 C 526.99 -16.56 529.2 -13.1 529.2 -8.42 C 529.2 -3.58 526.85 -0.26 523.73 -0.26 Z M 547.66 -0.26 C 546.26 -0.26 544.87 -0.74 543.72 -1.63 C 542.93 -2.38 543.36 -3.02 543.82 -3.72 L 542.23 -2.35 C 543.65 -0.74 545.66 0.22 547.66 0.22 C 551.33 0.22 554.02 -1.42 554.02 -4.7 C 554.02 -9.82 545.14 -9.38 545.14 -13.54 C 545.14 -15.19 546.26 -16.56 548.23 -16.56 C 549.14 -16.56 550.01 -16.42 550.78 -16.13 C 551.74 -15.6 551.45 -14.9 551.16 -14.14 L 552.17 -15.46 L 552.41 -15.79 C 551.23 -16.58 549.82 -17.04 548.23 -17.04 C 544.7 -17.04 542.62 -15.22 542.62 -12.77 C 542.62 -7.54 551.5 -7.85 551.5 -3.79 C 551.5 -1.94 550.1 -0.26 547.66 -0.26 Z" stroke-linecap="round" />
</g>
</g>
</g>
<g transform="matrix(1.9211538461538462 0 0 1.9211538461538462 632.9192715905787 351.96974152642395)" id="tagline-bb826f17-8548-4c92-8c20-b459e8df8902-logo"  >
<g style=""  paint-order="stroke"   >
		<g transform="matrix(1 0 0 1 0 0)" id="tagline-bb826f17-8548-4c92-8c20-b459e8df8902-logo-path-0"  >
<filter id="SVGID_297505" y="-20%" height="140%" x="-25.977218816105324%" width="151.95443763221064%" >
	<feGaussianBlur in="SourceAlpha" stdDeviation="0"></feGaussianBlur>
	<feOffset dx="9.402165197733675" dy="0" result="oBlur" ></feOffset>
	<feFlood flood-color="rgb(208,202,183)" flood-opacity="1"/>
	<feComposite in2="oBlur" operator="in" />
	<feMerge>
		<feMergeNode></feMergeNode>
		<feMergeNode in="SourceGraphic"></feMergeNode>
	</feMerge>
</filter>
<path style="stroke: none; stroke-width: 0; stroke-dasharray: none; stroke-linecap: butt; stroke-dashoffset: 0; stroke-linejoin: miter; stroke-miterlimit: 4; fill: rgb(0,0,0); fill-rule: nonzero; opacity: 1;filter: url(#SVGID_297505);"  paint-order="stroke"  transform=" translate(-83.49, 84.7)" d="M 48.16 -2.42 L 48.16 0 L 118.82 0 L 118.82 -2.42 C 110.11 -2.42 100.43 -4.11 100.43 -13.31 L 100.43 -158.51 C 121.73 -158.51 137.94 -141.57 153.91 -141.57 C 153.43 -152.46 152.94 -158.51 162.14 -169.4 C 155.36 -169.4 146.89 -166.98 140.36 -166.98 L 26.62 -166.98 C 20.09 -166.98 11.62 -169.4 4.84 -169.4 C 14.04 -158.51 13.55 -152.46 13.07 -141.57 C 29.04 -141.57 45.25 -158.51 66.55 -158.51 L 66.55 -13.31 C 66.55 -4.11 56.87 -2.42 48.16 -2.42 Z" stroke-linecap="round" />
</g>
</g>
</g>
</svg>